<svg id="Layer_1" data-name="Layer 1" xmlns="http://www.w3.org/2000/svg" width="371.44" height="293.51" viewBox="0 0 371.44 293.51"><title>Traveloka logo - Brandlogos.net</title><g id="Train_Booking" data-name="Train Booking"><g id="Train_Booking-Form_Login-Success" data-name="Train Booking-Form Login-Success"><g id="Logo-_-Normal-Text-Copy-2" data-name="Logo-/-Normal-Text-Copy-2"><g id="Icon-Blue-Copy"><path id="Path-7" d="M410.08,336.83c70.78-45,159.64-53.65,159.64-53.65S475.44,390.34,452.39,439.85c-7.12,21.6,7.78,39.17,7.78,39.17S418.88,432.77,410.08,336.83Z" transform="translate(-198.28 -237.24)" style="fill:#1ba0e2"/><path id="Path-7-Copy" d="M440.73,319.92a293.13,293.13,0,0,0-30.65,16.91c4.48,48.8,17.36,84.74,28.94,108.28,6.2,11,12.1,20.12,16.53,26.67a44.83,44.83,0,0,1-5-17.56C444.54,431.26,439,390.67,440.73,319.92Z" transform="translate(-198.28 -237.24)" style="fill:#0d7fcc"/><path id="Path-6" d="M346.62,378.7s-4.66-16.37-6.26-21.09c-4.32-12.71-8.75-25.64-8.75-47.7,0-30.25,51.53-62.53,82.93-72.67C406,347.35,418.4,381,429.8,417.64c27,90.05,88.58,103.07,94.66,109.18-15.71-3.39-6.74,3.93-6.74,3.93S492.64,513.31,442.15,499s-89.88-16.47-114-30.16c-18.56-13.94-19.16-25.3-28-32.92-29-25-101.92-35.57-101.92-35.57L261,410.6a61.75,61.75,0,0,0,18.81-3.66c2.19-.29,9.18-8.25,24.31-3.22,6.23,2.05,4.48,4.28,22.31,9.3C349.06,419.38,346.62,378.7,346.62,378.7Z" transform="translate(-198.28 -237.24)" style="fill:#1ba0e2"/></g></g></g></g></svg>